<svg xmlns="http://www.w3.org/2000/svg" xmlns:xlink="http://www.w3.org/1999/xlink" version="1.1" x="0px" y="0px" viewBox="0 0 270.6 270.6" enable-background="new 0 0 270.6 270.6" xml:space="preserve">
<g id="KEY_ACCOUNT_MANAGEMENT">
</g>
<g id="TIME_MANAGEMENT">
</g>
<g id="SOCIAL_NETWORK">
</g>
<g id="SOCIAL_MEDIA">
</g>
<g id="REFERRAL_MARKETING">
</g>
<g id="SEARCH_ANALYTICS">
</g>
<g id="STARTUP">
</g>
<g id="SEARCH_ENGINE_MARKETING">
</g>
<g id="MARKETING_STRATEGY">
</g>
<g id="MARKETING_PLAN">
</g>
<g id="MARKET_RESEARCH">
</g>
<g id="STATISTICS">
	<rect fill="#ffffff" width="270.6" height="270.6"/>
	<g>
		<g>
			<polygon fill="#ffffff" points="114.7,66.6 57.8,66.6 57.8,179.7 133.2,179.7 133.2,85.1    "/>
			<g>
				<polygon fill="#ffffff" points="114.7,85.9 133.9,85.9 114.7,66.6     "/>
			</g>
		</g>
		<g>
			<g>
				<rect x="49.1" y="84.6" fill="#1c140d" width="20.9" height="4"/>
			</g>
			<g>
				<rect x="48.7" y="93.7" fill="#1c140d" width="49.7" height="4"/>
			</g>
			<g>
				<rect x="48.7" y="102.8" fill="#1c140d" width="49.7" height="4"/>
			</g>
			<g>
				<rect x="48.7" y="111.9" fill="#1c140d" width="49.7" height="4"/>
			</g>
			<g>
				<rect x="48.7" y="120.9" fill="#1c140d" width="32.2" height="4"/>
			</g>
		</g>
		<g>
			<g>
				<polygon fill="#1c140d" points="41.1,188.7 38.3,185.9 95.1,129.1 105.7,139.7 138.2,107.2 154.9,123.9 197.2,81.6 200,84.4       154.9,129.5 138.2,112.8 105.7,145.3 95.1,134.7     "/>
			</g>
			<g>
				<polygon fill="#1c140d" points="203.3,98 199.3,98 199.3,84.2 185.5,84.2 185.5,80.2 203.3,80.2     "/>
			</g>
		</g>
		<g>
			<path fill="#ffffff" d="M166.5,105.5l0-39.2c0-2.7-2.2-4.9-4.9-4.9h-2.1c-2.7,0-4.9,2.2-4.9,4.9l0,39.2H166.5z"/>
			<path fill="#ffffff" d="M165,145.9v-48c0-2.7-1.7-4.9-3.8-4.9h-1.6c-2.1,0-3.8,2.2-3.8,4.9v48H165z"/>
			<g>
				<path fill="#1c140d" d="M150.8,98.9h-4V75.5c0-3.8,3.1-6.9,6.9-6.9h12.8v4h-12.8c-1.6,0-2.9,1.3-2.9,2.9V98.9z"/>
			</g>
			<g>
				<rect x="154.5" y="103.7" fill="#1c140d" width="12.2" height="4"/>
			</g>
			<g>
				<rect x="154.5" y="143.8" fill="#1c140d" width="12.2" height="4"/>
			</g>
			<g>
				<g>
					<path fill="#1c140d" d="M162.6,161.7h-4c0-2.8-1.4-6.3-2.2-6.7l-1.5-0.4l0.1-1.5v-6.1h4v5C161.5,154,162.6,159,162.6,161.7z"/>
				</g>
				<g>
					<path fill="#1c140d" d="M162.6,161.7h-4c0-2.6,1.1-7.7,3.6-9.8v-5h4v7.7l-1.5,0.4C164,155.4,162.6,158.9,162.6,161.7z"/>
				</g>
			</g>
		</g>
		<g>
			<path fill="#1c140d" d="M150.2,166.9c-3,0-4.5-2.3-5.6-3.9c-1-1.5-1.4-2.1-2.3-2.1c-0.8,0-1.3,0.6-2.3,2.1     c-1.1,1.6-2.6,3.9-5.6,3.9s-4.5-2.3-5.6-3.9c-1-1.5-1.5-2.1-2.3-2.1c-0.8,0-1.3,0.6-2.3,2.1c-1.1,1.6-2.6,3.9-5.6,3.9     c-3,0-4.5-2.3-5.6-3.9c-1-1.5-1.5-2.1-2.3-2.1s-1.3,0.6-2.3,2.1c-1.1,1.6-2.6,3.9-5.6,3.9v-4c0.8,0,1.3-0.6,2.3-2.1     c1.1-1.6,2.6-3.9,5.6-3.9c3,0,4.5,2.3,5.6,3.9c1,1.5,1.5,2.1,2.3,2.1c0.8,0,1.3-0.6,2.3-2.1c1.1-1.6,2.6-3.9,5.6-3.9     c3,0,4.5,2.3,5.6,3.9c1,1.5,1.5,2.1,2.3,2.1c0.8,0,1.3-0.6,2.3-2.1c1.1-1.6,2.6-3.9,5.6-3.9s4.5,2.3,5.6,3.9     c1,1.5,1.4,2.1,2.3,2.1V166.9z"/>
		</g>
		<g>
			<g>
				<path fill="#1c140d" d="M227.3,193.7h-48.7c-1.5,0-2.8-1.3-2.8-2.8v-66.5c0-1.5,1.3-2.8,2.8-2.8h48.7c1.5,0,2.8,1.3,2.8,2.8      v66.5C230.1,192.4,228.8,193.7,227.3,193.7z M179.8,189.7h46.3v-64.1h-46.3V189.7z"/>
			</g>
			<g>
				<path fill="#1c140d" d="M227.3,186h-48.7c-1.5,0-2.8-1.3-2.8-2.8v-50.8h4V182h46.3v-49.6h4v50.8      C230.1,184.7,228.8,186,227.3,186z"/>
			</g>
			<rect x="185.7" y="133.8" fill="#ffffff" width="34.6" height="8.8"/>
			<g>
				<g>
					<rect x="184.2" y="149.5" fill="#1c140d" width="6.3" height="4"/>
				</g>
				<g>
					<rect x="194.6" y="149.5" fill="#1c140d" width="6.3" height="4"/>
				</g>
				<g>
					<rect x="205" y="149.5" fill="#1c140d" width="6.3" height="4"/>
				</g>
				<g>
					<rect x="215.3" y="149.5" fill="#1c140d" width="6.3" height="4"/>
				</g>
			</g>
			<g>
				<g>
					<rect x="184.2" y="157.3" fill="#1c140d" width="6.3" height="4"/>
				</g>
				<g>
					<rect x="194.6" y="157.3" fill="#1c140d" width="6.3" height="4"/>
				</g>
				<g>
					<rect x="205" y="157.3" fill="#1c140d" width="6.3" height="4"/>
				</g>
				<g>
					<rect x="215.3" y="157.3" fill="#1c140d" width="6.3" height="4"/>
				</g>
			</g>
			<g>
				<g>
					<rect x="184.2" y="165.1" fill="#1c140d" width="6.3" height="4"/>
				</g>
				<g>
					<rect x="194.6" y="165.1" fill="#1c140d" width="6.3" height="4"/>
				</g>
				<g>
					<rect x="205" y="165.1" fill="#1c140d" width="6.3" height="4"/>
				</g>
				<g>
					<rect x="215.3" y="165.1" fill="#1c140d" width="6.3" height="4"/>
				</g>
			</g>
			<g>
				<g>
					<rect x="184.2" y="173" fill="#1c140d" width="6.3" height="4"/>
				</g>
				<g>
					<rect x="194.6" y="173" fill="#1c140d" width="6.3" height="4"/>
				</g>
				<g>
					<rect x="205" y="173" fill="#1c140d" width="6.3" height="4"/>
				</g>
				<g>
					<rect x="215.3" y="173" fill="#1c140d" width="6.3" height="4"/>
				</g>
			</g>
		</g>
	</g>
</g>
<g id="INTERNET_MARKETING">
</g>
<g id="MOBILE_MARKETING">
</g>
<g id="VIDEO_ADVERTISING">
</g>
<g id="EMAIL_MARKETING">
</g>
</svg>